<?xml version="1.0" encoding="UTF-8" standalone="no"?>
<!-- Created with Inkscape (http://www.inkscape.org/) -->

<svg version="1.1" id="svg2" width="325.12" height="429.44" viewBox="0 0 325.12 429.44" sodipodi:docname="occult_border_1.svg" inkscape:version="1.1.2 (0a00cf5339, 2022-02-04, custom)" xmlns:inkscape="http://www.inkscape.org/namespaces/inkscape" xmlns:sodipodi="http://sodipodi.sourceforge.net/DTD/sodipodi-0.dtd" xmlns="http://www.w3.org/2000/svg" xmlns:svg="http://www.w3.org/2000/svg">
  <defs id="defs6" />
  <sodipodi:namedview id="namedview4" pagecolor="#ffffff" bordercolor="#666666" borderopacity="1.0" inkscape:pageshadow="2" inkscape:pageopacity="0.0" inkscape:pagecheckerboard="0" showgrid="false" inkscape:zoom="1.4142136" inkscape:cx="259.86174" inkscape:cy="324.91556" inkscape:window-width="1912" inkscape:window-height="1072" inkscape:window-x="0" inkscape:window-y="0" inkscape:window-maximized="1" inkscape:current-layer="g8" />
  <g inkscape:groupmode="layer" id="layer1" inkscape:label="Image 1">
    <rect style="fill:#171717;fill-opacity:1;stroke:black;stroke-width:1.586;stroke-linecap:round;stroke-linejoin:round;stroke-miterlimit:4;stroke-dasharray:none;stroke-opacity:1;paint-order:fill markers stroke" id="rect12100" width="302.13452" height="427.77478" x="11.661942" y="0.92981011" ry="0" rx="0" />
    <path sodipodi:type="star" style="fill:#f6e3c9;fill-opacity:1;stroke:none;stroke-width:0.532913;stroke-linecap:round;stroke-linejoin:round" id="path2967-2" inkscape:flatsided="true" sodipodi:sides="3" sodipodi:cx="34.602119" sodipodi:cy="29.262753" sodipodi:r1="6.4546127" sodipodi:r2="5.8542109" sodipodi:arg1="0.28776976" sodipodi:arg2="1.3110076" inkscape:rounded="1" inkscape:randomized="0" inkscape:transform-center-x="-0.27322034" inkscape:transform-center-y="-0.33775531" transform="matrix(-0.68468413,-0.45029485,-0.45029485,0.68468413,329.16341,18.617387)" d="m 40.791314,31.094665 c -3.172965,10.719998 -3.172965,10.719998 -10.870274,2.612131 -7.697309,-8.107868 -7.697309,-8.107868 3.172965,-10.719999 10.870273,-2.612131 10.870273,-2.612131 7.697309,8.107868 z" />
    <path sodipodi:type="star" style="fill:#f6e3c9;fill-opacity:1;stroke:none;stroke-width:0.532913;stroke-linecap:round;stroke-linejoin:round" id="path2967-0" inkscape:flatsided="true" sodipodi:sides="3" sodipodi:cx="34.602119" sodipodi:cy="29.262753" sodipodi:r1="6.4546127" sodipodi:r2="5.8542109" sodipodi:arg1="0.28776976" sodipodi:arg2="1.3110076" inkscape:rounded="1" inkscape:randomized="0" inkscape:transform-center-x="0.27321532" inkscape:transform-center-y="0.33775798" transform="matrix(0.68468413,0.45029485,0.45029485,-0.68468413,-3.8431221,412.08303)" d="m 40.791314,31.094665 c -3.172965,10.719998 -3.172965,10.719998 -10.870274,2.612131 -7.697309,-8.107868 -7.697309,-8.107868 3.172965,-10.719999 10.870273,-2.612131 10.870273,-2.612131 7.697309,8.107868 z" />
    <path sodipodi:type="star" style="fill:#f6e3c9;fill-opacity:1;stroke:none;stroke-width:0.532913;stroke-linecap:round;stroke-linejoin:round" id="path2967-9" inkscape:flatsided="true" sodipodi:sides="3" sodipodi:cx="34.602119" sodipodi:cy="29.262753" sodipodi:r1="6.4546127" sodipodi:r2="5.8542109" sodipodi:arg1="0.28776976" sodipodi:arg2="1.3110076" inkscape:rounded="1" inkscape:randomized="0" inkscape:transform-center-x="-0.27322034" inkscape:transform-center-y="0.33775798" transform="matrix(-0.68468413,0.45029485,-0.45029485,-0.68468413,330.0754,412.02678)" d="m 40.791314,31.094665 c -3.172965,10.719998 -3.172965,10.719998 -10.870274,2.612131 -7.697309,-8.107868 -7.697309,-8.107868 3.172965,-10.719999 10.870273,-2.612131 10.870273,-2.612131 7.697309,8.107868 z" />
  </g>
  <g inkscape:groupmode="layer" inkscape:label="Image" id="g8">
    <rect style="fill:none;stroke:#f6e3c9;stroke-width:1.586;stroke-linecap:square;stroke-linejoin:round;stroke-miterlimit:0;stroke-dasharray:none;stroke-opacity:1;paint-order:fill markers stroke" id="rect964" width="302.13452" height="427.77478" x="11.661942" y="0.92981011" ry="0" rx="0" />
    <path style="fill:none;stroke:#f6e3c9;stroke-width:1.586;stroke-linecap:round;stroke-linejoin:round;stroke-miterlimit:4;stroke-dasharray:none;stroke-opacity:1" d="m 11.964004,28.635627 c 40.464999,3.495706 31.106035,56.40839 -0.209322,54.784232 12.484323,46.570281 12.472437,83.809161 -0.0036,124.352651 -16.8588054,48.96906 -11.72553599,102.52524 -0.0094,138.27916 35.595926,1.60151 37.05415,51.78278 -0.0684,55.14834 m 27.123907,27.30042 c 6.867112,-43.77182 57.833768,-28.71798 54.909371,0.20358 63.72659,-17.52272 109.34957,-7.47368 136.9317,0.14802 6.07278,-42.43649 56.16713,-32.0471 55.98913,-0.0302 m 27.13317,-27.76016 c -43.05312,-6.68915 -29.88425,-56.03408 0.0146,-55.23935 17.19601,-56.59478 10.09,-98.21227 0.13111,-135.11032 -15.25445,-51.96468 -11.73973,-88.97195 -0.20569,-126.852841 -40.91578,-6.07087 -31.59015,-55.553237 0.11416,-55.435704 M 286.55515,1.005296 C 282.94108,38.637604 232.6131,36.152293 231.62061,0.85481382 185.69864,13.280856 139.96383,14.473408 94.472794,1.0341823 L 39.349161,1.0090171" id="path1785" sodipodi:nodetypes="cccccccccccccccccc" />
    <path style="fill:none;stroke:#f6e3c9;stroke-width:1.586;stroke-linecap:butt;stroke-linejoin:miter;stroke-miterlimit:4;stroke-dasharray:none;stroke-opacity:1" d="m 11.776942,373.3007 c 34.499665,2.10793 38.336388,50.43388 -0.115,55.40389" id="path5528" sodipodi:nodetypes="cc" />
    <path style="fill:none;stroke:#f6e3c9;stroke-width:1.586;stroke-linecap:butt;stroke-linejoin:miter;stroke-miterlimit:4;stroke-dasharray:none;stroke-opacity:1" d="m 11.673282,401.20001 c 10.041178,0.34333 26.922984,5.00982 27.123907,27.30042" id="path5696" sodipodi:nodetypes="cc" />
    <path style="fill:none;stroke:#f6e3c9;stroke-width:1.586;stroke-linecap:butt;stroke-linejoin:miter;stroke-miterlimit:4;stroke-dasharray:none;stroke-opacity:1" d="M 66.811451,428.65409 C 60.453425,384.88 9.5563687,399.59923 12.007542,428.72089" id="path5826" sodipodi:nodetypes="cc" />
    <path style="fill:none;stroke:#f6e3c9;stroke-width:1.586;stroke-linecap:butt;stroke-linejoin:miter;stroke-miterlimit:4;stroke-dasharray:none;stroke-opacity:1" d="m 93.70656,428.70401 c 50.84715,-27.93188 100.35113,-21.61551 136.9317,0.14802" id="path6032" sodipodi:nodetypes="cc" />
    <path style="fill:none;stroke:#f6e3c9;stroke-width:1.586;stroke-linecap:butt;stroke-linejoin:miter;stroke-miterlimit:4;stroke-dasharray:none;stroke-opacity:1" d="M 313.66191,55.720593 C 282.55952,56.901552 272.64552,6.0356839 313.79645,0.92981011" id="path6200" sodipodi:nodetypes="cc" />
    <path style="fill:none;stroke:#f6e3c9;stroke-width:1.586;stroke-linecap:butt;stroke-linejoin:miter;stroke-miterlimit:4;stroke-dasharray:none;stroke-opacity:1" d="M 313.81474,28.423455 C 290.81497,25.51521 288.11823,13.514111 286.55515,1.005296" id="path6368" sodipodi:nodetypes="cc" />
    <path style="fill:none;stroke:#f6e3c9;stroke-width:1.586;stroke-linecap:butt;stroke-linejoin:miter;stroke-miterlimit:4;stroke-dasharray:none;stroke-opacity:1" d="M 258.93699,0.79185724 C 260.85757,38.883366 313.7027,36.768927 313.79645,0.92981011" id="path6460" sodipodi:nodetypes="cc" />
    <path style="fill:none;stroke:#f6e3c9;stroke-width:1.586;stroke-linecap:butt;stroke-linejoin:miter;stroke-miterlimit:4;stroke-dasharray:none;stroke-opacity:1" d="M 231.62061,0.85481382 C 183.3465,26.643505 137.83902,24.606709 94.472794,1.0341823" id="path6856" sodipodi:nodetypes="cc" />
    <path style="fill:none;stroke:#f6e3c9;stroke-width:1.586;stroke-linecap:butt;stroke-linejoin:miter;stroke-miterlimit:4;stroke-dasharray:none;stroke-opacity:1" d="M 94.472794,1.0341823 C 92.021965,36.385922 41.197048,38.853963 39.349161,1.0090171 36.673432,10.757388 36.830461,25.042493 11.964004,28.635627" id="path6948" sodipodi:nodetypes="ccc" />
    <path style="fill:none;stroke:#f6e3c9;stroke-width:1.586;stroke-linecap:butt;stroke-linejoin:miter;stroke-miterlimit:4;stroke-dasharray:none;stroke-opacity:1" d="M 66.545313,0.99304365 C 67.37301,30.154184 17.100984,44.260368 11.661942,0.92981011" id="path7268" sodipodi:nodetypes="cc" />
    <path style="fill:none;stroke:#f6e3c9;stroke-width:1.586;stroke-linecap:butt;stroke-linejoin:miter;stroke-miterlimit:4;stroke-dasharray:none;stroke-opacity:1" d="m 11.650339,55.815645 c 40.917943,-3.18143 31.416656,-56.39609401 0.0116,-54.88583489" id="path7398" sodipodi:nodetypes="cc" />
    <path style="fill:none;stroke:#f6e3c9;stroke-width:1.586;stroke-linecap:butt;stroke-linejoin:miter;stroke-miterlimit:4;stroke-dasharray:none;stroke-opacity:1" d="m 259.20624,428.71316 c 0.85745,-38.74704 56.14035,-34.4508 54.59021,-0.009" id="path7680" sodipodi:nodetypes="cc" />
    <path style="fill:none;stroke:#f6e3c9;stroke-width:1.586;stroke-linecap:butt;stroke-linejoin:miter;stroke-miterlimit:4;stroke-dasharray:none;stroke-opacity:1" d="m 313.67891,373.49165 c -42.35717,4.84022 -29.12265,55.45119 0.11754,55.21294" id="path7995" sodipodi:nodetypes="cc" />
    <path style="fill:none;stroke:#f6e3c9;stroke-width:1.586;stroke-linecap:butt;stroke-linejoin:miter;stroke-miterlimit:4;stroke-dasharray:none;stroke-opacity:1" d="m 286.62739,428.82183 c 0.97071,-15.68986 8.18289,-26.40391 27.13317,-27.76016" id="path8125" sodipodi:nodetypes="cc" />
    <circle id="path13124" style="fill:#f6e3c9;stroke:#f6e3c9;stroke-opacity:1" cx="387.33597" cy="348.41861" r="0.17804313" />
    <circle id="path13126" style="fill:#f6e3c9;stroke:#f6e3c9;stroke-opacity:1" cx="387.33597" cy="348.41861" r="0.17804313" />
    <g id="g2240">
      <path sodipodi:type="star" style="fill:#f6e3c9;fill-opacity:1;stroke:none;stroke-width:0.532913;stroke-linecap:round;stroke-linejoin:round" id="path1298" inkscape:flatsided="true" sodipodi:sides="3" sodipodi:cx="35.960178" sodipodi:cy="27.022501" sodipodi:r1="22.572195" sodipodi:r2="20.890055" sodipodi:arg1="-1.4487347" sodipodi:arg2="-0.40153713" inkscape:rounded="1" inkscape:randomized="0" d="M 38.708541,4.6182493 C 77.513843,9.3785524 77.513843,9.3785524 53.988648,40.604778 30.463454,71.831004 30.463454,71.831004 15.183346,35.844475 -0.09676156,-0.14205386 -0.09676156,-0.14205386 38.708541,4.6182493 Z" transform="matrix(0.20802142,0,0,0.27409806,10.811418,0.22661678)" />
      <path sodipodi:type="star" style="fill:#f6e3c9;fill-opacity:1;stroke:none;stroke-width:0.532913;stroke-linecap:round;stroke-linejoin:round" id="path1298-3" inkscape:flatsided="true" sodipodi:sides="4" sodipodi:cx="35.960178" sodipodi:cy="27.022501" sodipodi:r1="36.543682" sodipodi:r2="20.890055" sodipodi:arg1="-1.5006601" sodipodi:arg2="-0.7152619" inkscape:rounded="0.28" inkscape:randomized="0" transform="matrix(0.24017451,0,0,0.26762481,17.138163,7.3918756)" d="M 38.521114,-9.4313371 C 52.956097,-8.4172585 73.428095,15.148453 72.414016,29.583436 71.399938,44.01842 47.834227,64.490418 33.399243,63.476339 18.96426,62.46226 -1.5077383,38.896549 -0.49365973,24.461566 0.52041887,10.026582 24.08613,-10.445416 38.521114,-9.4313371 Z" />
    </g>
    <g id="g2745" transform="matrix(1.0575226,-0.00803029,-0.01742042,0.98362513,6.2840032,6.8124347)">
      <path sodipodi:type="star" style="fill:#f6e3c9;fill-opacity:1;stroke:none;stroke-width:0.532913;stroke-linecap:round;stroke-linejoin:round" id="path1298-5" inkscape:flatsided="true" sodipodi:sides="3" sodipodi:cx="35.960178" sodipodi:cy="27.022501" sodipodi:r1="22.572195" sodipodi:r2="20.890055" sodipodi:arg1="-1.4487347" sodipodi:arg2="-0.40153713" inkscape:rounded="1" inkscape:randomized="0" transform="matrix(0.20802142,-0.0508697,0,-0.27409806,10.37667,430.81277)" d="M 38.708541,4.6182493 C 77.513843,9.3785524 77.513843,9.3785524 53.988648,40.604778 30.463454,71.831004 30.463454,71.831004 15.183346,35.844475 -0.09676156,-0.14205386 -0.09676156,-0.14205386 38.708541,4.6182493 Z" />
      <path sodipodi:type="star" style="fill:#f6e3c9;fill-opacity:1;stroke:none;stroke-width:0.532913;stroke-linecap:round;stroke-linejoin:round" id="path1298-3-6" inkscape:flatsided="true" sodipodi:sides="4" sodipodi:cx="35.960178" sodipodi:cy="27.022501" sodipodi:r1="36.543682" sodipodi:r2="20.890055" sodipodi:arg1="-1.5006601" sodipodi:arg2="-0.7152619" inkscape:rounded="0.28" inkscape:randomized="0" transform="matrix(0.24738363,0,0.02724694,-0.26774323,15.970955,421.71972)" d="M 38.521114,-9.4313371 C 52.956097,-8.4172585 73.428095,15.148453 72.414016,29.583436 71.399938,44.01842 47.834227,64.490418 33.399243,63.476339 18.96426,62.46226 -1.5077383,38.896549 -0.49365973,24.461566 0.52041887,10.026582 24.08613,-10.445416 38.521114,-9.4313371 Z" />
    </g>
    <g id="g2387" transform="translate(0.15927164,-0.48750111)">
      <path sodipodi:type="star" style="fill:#f6e3c9;fill-opacity:1;stroke:none;stroke-width:0.532913;stroke-linecap:round;stroke-linejoin:round" id="path1298-7" inkscape:flatsided="true" sodipodi:sides="3" sodipodi:cx="35.960178" sodipodi:cy="27.022501" sodipodi:r1="22.572195" sodipodi:r2="20.890055" sodipodi:arg1="-1.4487347" sodipodi:arg2="-0.40153713" inkscape:rounded="1" inkscape:randomized="0" transform="matrix(-0.21129752,0.02356658,-0.00252135,0.27437927,314.93629,0.29190576)" d="M 38.708541,4.6182493 C 77.513843,9.3785524 77.513843,9.3785524 53.988648,40.604778 30.463454,71.831004 30.463454,71.831004 15.183346,35.844475 -0.09676156,-0.14205386 -0.09676156,-0.14205386 38.708541,4.6182493 Z" />
      <path sodipodi:type="star" style="fill:#f6e3c9;fill-opacity:1;stroke:none;stroke-width:0.532913;stroke-linecap:round;stroke-linejoin:round" id="path1298-3-5" inkscape:flatsided="true" sodipodi:sides="4" sodipodi:cx="35.960178" sodipodi:cy="27.022501" sodipodi:r1="36.543682" sodipodi:r2="20.890055" sodipodi:arg1="-1.5006601" sodipodi:arg2="-0.7152619" inkscape:rounded="0.28" inkscape:randomized="0" transform="matrix(-0.24395699,0,-0.00624085,0.26762481,308.4703,8.352972)" d="M 38.521114,-9.4313371 C 52.956097,-8.4172585 73.428095,15.148453 72.414016,29.583436 71.399938,44.01842 47.834227,64.490418 33.399243,63.476339 18.96426,62.46226 -1.5077383,38.896549 -0.49365973,24.461566 0.52041887,10.026582 24.08613,-10.445416 38.521114,-9.4313371 Z" />
    </g>
    <g id="g2943" transform="matrix(1.0204308,0.00795363,0,1.0112047,-6.2339393,-7.0093317)">
      <path sodipodi:type="star" style="fill:#f6e3c9;fill-opacity:1;stroke:none;stroke-width:0.532913;stroke-linecap:round;stroke-linejoin:round" id="path1298-5-9" inkscape:flatsided="true" sodipodi:sides="3" sodipodi:cx="35.960178" sodipodi:cy="27.022501" sodipodi:r1="22.572195" sodipodi:r2="20.890055" sodipodi:arg1="-1.4487347" sodipodi:arg2="-0.40153713" inkscape:rounded="1" inkscape:randomized="0" transform="matrix(-0.22450944,-0.0508697,0,-0.27409806,315.54259,430.31898)" d="M 38.708541,4.6182493 C 77.513843,9.3785524 77.513843,9.3785524 53.988648,40.604778 30.463454,71.831004 30.463454,71.831004 15.183346,35.844475 -0.09676156,-0.14205386 -0.09676156,-0.14205386 38.708541,4.6182493 Z" />
      <path sodipodi:type="star" style="fill:#f6e3c9;fill-opacity:1;stroke:none;stroke-width:0.532913;stroke-linecap:round;stroke-linejoin:round" id="path1298-3-6-1" inkscape:flatsided="true" sodipodi:sides="4" sodipodi:cx="35.960178" sodipodi:cy="27.022501" sodipodi:r1="36.543682" sodipodi:r2="20.890055" sodipodi:arg1="-1.5006601" sodipodi:arg2="-0.7152619" inkscape:rounded="0.28" inkscape:randomized="0" transform="matrix(-0.25421275,0,-0.0279991,-0.26774323,309.30971,421.22593)" d="M 38.521114,-9.4313371 C 52.956097,-8.4172585 73.428095,15.148453 72.414016,29.583436 71.399938,44.01842 47.834227,64.490418 33.399243,63.476339 18.96426,62.46226 -1.5077383,38.896549 -0.49365973,24.461566 0.52041887,10.026582 24.08613,-10.445416 38.521114,-9.4313371 Z" />
    </g>
    <path sodipodi:type="star" style="fill:#f6e3c9;fill-opacity:1;stroke:none;stroke-width:0.532913;stroke-linecap:round;stroke-linejoin:round" id="path2967" inkscape:flatsided="true" sodipodi:sides="3" sodipodi:cx="34.602119" sodipodi:cy="29.262753" sodipodi:r1="6.4546127" sodipodi:r2="5.8542109" sodipodi:arg1="0.28776976" sodipodi:arg2="1.3110076" inkscape:rounded="1" inkscape:randomized="0" d="m 40.791314,31.094665 c -3.172965,10.719998 -3.172965,10.719998 -10.870274,2.612131 -7.697309,-8.107868 -7.697309,-8.107868 3.172965,-10.719999 10.870273,-2.612131 10.870273,-2.612131 7.697309,8.107868 z" inkscape:transform-center-x="0.27321536" inkscape:transform-center-y="-0.33775531" transform="matrix(0.68468413,-0.45029485,0.45029485,0.68468413,-3.7628439,18.272866)" />
  </g>
</svg>
