<?xml version="1.0" encoding="UTF-8" standalone="no"?>
<!-- Created with Inkscape (http://www.inkscape.org/) -->

<svg width="113.27502mm" height="80.97332mm" viewBox="0 0 113.27502 80.97332" version="1.1" id="svg5" inkscape:version="1.1.2 (0a00cf5339, 2022-02-04, custom)" sodipodi:docname="occult_border_2.svg" xmlns:inkscape="http://www.inkscape.org/namespaces/inkscape" xmlns:sodipodi="http://sodipodi.sourceforge.net/DTD/sodipodi-0.dtd" xmlns="http://www.w3.org/2000/svg" xmlns:svg="http://www.w3.org/2000/svg">
  <sodipodi:namedview id="namedview7" pagecolor="#ffffff" bordercolor="#666666" borderopacity="1.0" inkscape:pageshadow="2" inkscape:pageopacity="0.0" inkscape:pagecheckerboard="0" inkscape:document-units="mm" showgrid="false" inkscape:zoom="2.8284271" inkscape:cx="255.79588" inkscape:cy="218.67277" inkscape:window-width="3832" inkscape:window-height="2152" inkscape:window-x="1920" inkscape:window-y="0" inkscape:window-maximized="1" inkscape:current-layer="layer2" />
  <defs id="defs2" />
  <g inkscape:label="Layer 1" inkscape:groupmode="layer" id="layer1" style="display:inline" transform="translate(-0.03003905,0.03540866)">
    <rect style="fill:#171717;fill-opacity:1;stroke:none;stroke-width:1.28525;stroke-miterlimit:4;stroke-dasharray:none;stroke-opacity:1" id="rect13999" width="108.02197" height="76.343445" x="2.5338502" y="2.157423" />
    <rect style="fill:#171717;fill-opacity:1;stroke:none;stroke-width:0.465;stroke-miterlimit:4;stroke-dasharray:none;stroke-opacity:1" id="rect14125" width="3.6270783" height="58.510956" x="109.4455" y="11.153097" />
    <rect style="display:inline;fill:#171717;fill-opacity:1;stroke:none;stroke-width:0.465;stroke-miterlimit:4;stroke-dasharray:none;stroke-opacity:1" id="rect14128" width="90.628868" height="2.7409968" x="11.403274" y="0.27271083" />
    <rect style="fill:#171717;fill-opacity:1;stroke:none;stroke-width:0.462942;stroke-miterlimit:4;stroke-dasharray:none;stroke-opacity:1" id="rect14131" width="8.9655628" height="58.558723" x="0.36519137" y="11.221518" ry="0" />
    <rect style="fill:#171717;fill-opacity:1;stroke:none;stroke-width:0.608593;stroke-miterlimit:4;stroke-dasharray:none;stroke-opacity:1" id="rect14237" width="90.64901" height="8.0537796" x="11.374751" y="72.619438" />
  </g>
  <g inkscape:groupmode="layer" id="layer2" inkscape:label="Layer 2" transform="translate(-0.03003905,0.03540866)">
    <path style="fill:#171717;fill-opacity:1;stroke:#f6e3c9;stroke-width:0.0181639;stroke-miterlimit:4;stroke-dasharray:none;stroke-opacity:1" d="m 111.02865,2.8870745 v -0.946576 h -0.93016 c -0.78706,0 -0.93017,-0.00212 -0.93017,-0.014367 0,-0.037081 0.0359,-0.1970088 0.0641,-0.2853585 0.13793,-0.4328662 0.44555,-0.79173909 0.85061,-0.9923303 0.24247,-0.12007056 0.44846,-0.16804745 0.7183,-0.16729339 0.27198,7.9375e-4 0.47614,0.0485616 0.71829,0.16816652 0.16268,0.0803513 0.29504,0.17594262 0.42867,0.30957308 0.23598,0.23598189 0.39309,0.52887029 0.46742,0.87138399 0.0196,0.090466 0.0228,0.1366203 0.0228,0.3324252 0,0.256069 -0.0139,0.3480805 -0.0835,0.5529315 -0.19606,0.577215 -0.70163,1.0151216 -1.28241,1.1107817 l -0.0439,0.00722 z" id="path10066" />
    <path style="fill:#171717;fill-opacity:1;stroke:#f6e3c9;stroke-width:0.0181639;stroke-miterlimit:4;stroke-dasharray:none;stroke-opacity:1" d="m 110.46538,3.8148439 c -0.28551,-0.060402 -0.5694,-0.2114233 -0.78403,-0.4170865 -0.20383,-0.1953181 -0.34474,-0.4124325 -0.43388,-0.6685095 -0.0284,-0.081497 -0.0791,-0.2791037 -0.0791,-0.3079856 0,-0.00294 0.3116,-0.00534 0.69246,-0.00534 h 0.69245 v 0.7079589 c 0,0.3893793 -0.003,0.7075805 -0.008,0.7071175 -0.004,-5.292e-4 -0.0403,-0.00773 -0.0801,-0.01614 z" id="path10027" />
    <path style="fill:#171717;fill-opacity:1;stroke:#f6e3c9;stroke-width:0.0181639;stroke-miterlimit:4;stroke-dasharray:none;stroke-opacity:1" d="M 2.7677175,3.0980374 V 2.3952459 H 3.532522 c 0.6049592,0 0.7647993,0.0027 0.7647887,0.012912 -7.9e-6,0.00712 -0.011298,0.059428 -0.025082,0.1162712 -0.1379987,0.5687774 -0.5521721,1.021535 -1.1011164,1.2037033 -0.09769,0.032417 -0.301707,0.072692 -0.3682391,0.072692 h -0.035147 z" id="path9637" />
    <path style="fill:#171717;fill-opacity:1;stroke:#f6e3c9;stroke-width:0.0181639;stroke-miterlimit:4;stroke-dasharray:none;stroke-opacity:1" d="M 2.1734448,3.7278648 C 2.0423358,3.6848964 1.8277587,3.5749224 1.7218751,3.4964284 1.3134405,3.1936499 1.0707012,2.7539838 1.0323657,2.2475475 0.98024015,1.5588768 1.3468177,0.90692759 1.9564071,0.60417017 2.3422886,0.41252189 2.7759354,0.38269012 3.1877832,0.51946117 3.6829377,0.68389706 4.0789051,1.0908659 4.2405761,1.6015064 c 0.027548,0.087011 0.067082,0.2630964 0.067082,0.2987887 0,0.019023 -0.026458,0.019526 -1.0076788,0.019526 H 2.2923009 v 0.9198318 c 0,0.7292764 -0.00267,0.9197102 -0.012912,0.9192604 -0.00712,-2.646e-4 -0.054777,-0.014288 -0.1059366,-0.031054 z" id="path9598" />
    <path style="fill:#171717;fill-opacity:1;stroke:#f6e3c9;stroke-width:0.00642189;stroke-miterlimit:4;stroke-dasharray:none;stroke-opacity:1" d="M 2.3770681,80.41679 C 2.0147689,80.393639 1.6883233,80.26349 1.4124026,80.032165 1.3676801,79.994671 1.2706256,79.899069 1.2320097,79.854474 1.0999059,79.701915 1.0020259,79.540223 0.93006985,79.355697 c -0.1772629,-0.454586 -0.1541303,-0.961009 0.063754,-1.395841 0.0866908,-0.173009 0.17908845,-0.300329 0.31960345,-0.440399 0.1311989,-0.130789 0.2567596,-0.222128 0.4168775,-0.30326 0.1255844,-0.06364 0.2505524,-0.108464 0.3863975,-0.138607 0.048575,-0.01077 0.1520004,-0.02757 0.1699286,-0.02758 l 0.01188,-8e-6 v 0.959184 0.959183 h 0.8988927 c 0.8861399,0 0.8988928,1.01e-4 0.8988928,0.0071 0,0.01458 -0.018865,0.110172 -0.033099,0.167597 -0.051795,0.209177 -0.1429173,0.408292 -0.2654485,0.580038 -0.060328,0.08456 -0.1145963,0.147521 -0.195244,0.22651 -0.1287594,0.126116 -0.2517748,0.214246 -0.410583,0.294153 -0.1805464,0.09084 -0.3620585,0.144558 -0.5612977,0.166106 -0.050789,0.0055 -0.2086451,0.0098 -0.2535528,0.007 z" id="path9208" />
    <path style="fill:#171717;fill-opacity:1;stroke:#f6e3c9;stroke-width:0.00908193;stroke-miterlimit:4;stroke-dasharray:none;stroke-opacity:1" d="m 110.70051,80.466643 c -0.01,-0.0011 -0.0413,-0.0046 -0.0698,-0.0075 -0.0284,-0.003 -0.0854,-0.0122 -0.12661,-0.02045 -0.64676,-0.129617 -1.15586,-0.639231 -1.29659,-1.297914 -0.0105,-0.04901 -0.0263,-0.146428 -0.0263,-0.161824 0,-0.0069 0.10415,-0.0078 0.92241,-0.0078 h 0.92242 v -0.933162 -0.933159 l 0.0142,0.0029 c 0.008,0.0016 0.0363,0.0066 0.0633,0.01106 0.14429,0.0241 0.30443,0.07775 0.447,0.14977 0.31188,0.157538 0.57069,0.416012 0.7295,0.728532 0.10236,0.201452 0.1598,0.397413 0.18253,0.622695 0.007,0.06958 0.007,0.255383 3e-5,0.325556 -0.0785,0.786522 -0.6636,1.404184 -1.43203,1.511679 -0.0559,0.0078 -0.28789,0.01463 -0.3301,0.0097 z" id="path9169" />
    <path style="fill:#171717;fill-opacity:1;stroke:#f6e3c9;stroke-width:0.00908193;stroke-miterlimit:4;stroke-dasharray:none;stroke-opacity:1" d="m 109.19402,78.489247 c 0.001,-0.0064 0.006,-0.03023 0.0107,-0.05297 0.0199,-0.10192 0.0589,-0.226867 0.10327,-0.330788 0.13746,-0.321825 0.3743,-0.596204 0.66906,-0.775115 0.16717,-0.101468 0.36915,-0.178049 0.55939,-0.212095 l 0.0194,-0.0035 v 0.693031 0.693031 h -0.68222 -0.68222 z" id="path9130" />
    <path style="fill:#171717;fill-opacity:1;stroke:#f6e3c9;stroke-width:0.0363278;stroke-miterlimit:4;stroke-dasharray:none;stroke-opacity:1" d="m 2.7832221,77.786276 v -0.712012 l 0.1085188,0.03109 c 0.5475711,0.15685 0.9981644,0.614111 1.151927,1.168974 0.069032,0.249113 0.1374458,0.223967 -0.6093301,0.223967 H 2.7832221 Z" id="path8506" />
    <ellipse style="fill:none;fill-opacity:1;stroke:#f6e3c9;stroke-width:0.465;stroke-miterlimit:4;stroke-dasharray:none;stroke-opacity:1" id="path7268-3" cx="2.462935" cy="78.72924" rx="1.8852978" ry="1.9235427" />
    <ellipse style="fill:none;fill-opacity:1;stroke:#f6e3c9;stroke-width:0.465;stroke-miterlimit:4;stroke-dasharray:none;stroke-opacity:1" id="path7268-5" cx="110.81997" cy="78.781868" rx="1.8852978" ry="1.9235427" />
    <ellipse style="fill:none;fill-opacity:1;stroke:#f6e3c9;stroke-width:0.465;stroke-miterlimit:4;stroke-dasharray:none;stroke-opacity:1" id="path7268-7" cx="110.79887" cy="2.1632061" rx="1.8852978" ry="1.9235427" />
    <ellipse style="fill:none;fill-opacity:1;stroke:#f6e3c9;stroke-width:0.465;stroke-miterlimit:4;stroke-dasharray:none;stroke-opacity:1" id="path7268" cx="2.6734567" cy="2.1206341" rx="1.8852978" ry="1.9235427" />
    <ellipse style="fill:#f6e3c9;fill-opacity:1;stroke:#f6e3c9;stroke-width:0.000985196;stroke-miterlimit:4;stroke-dasharray:none;stroke-opacity:1" id="path6881-6" cx="104.60294" cy="39.987549" rx="2.5590799" ry="2.5655863" />
    <ellipse style="fill:#f6e3c9;fill-opacity:1;stroke:#f6e3c9;stroke-width:0.000985196;stroke-miterlimit:4;stroke-dasharray:none;stroke-opacity:1" id="path6881" cx="8.5711889" cy="40.604149" rx="2.5590799" ry="2.5655863" />
    <path style="fill:none;stroke:#f6e3c9;stroke-width:0.465;stroke-linecap:butt;stroke-linejoin:miter;stroke-miterlimit:4;stroke-dasharray:none;stroke-opacity:1" d="m 4.574387,4.3293262 -0.01049,72.2729078 104.103683,0.0433 0.0367,-72.3072978 z" id="path6219-3" sodipodi:nodetypes="ccccc" />
    <path style="fill:none;stroke:#f6e3c9;stroke-width:0.465;stroke-linecap:butt;stroke-linejoin:miter;stroke-miterlimit:4;stroke-dasharray:none;stroke-opacity:1" d="M 2.53385,2.1574222 V 78.735944 H 110.79016 V 2.1758692 Z" id="path6219" />
    <path style="fill:none;stroke:#f6e3c9;stroke-width:0.465;stroke-linecap:butt;stroke-linejoin:miter;stroke-miterlimit:4;stroke-dasharray:none;stroke-opacity:1" d="M 113.07256,11.153097 C 105.79056,14.75237 98.006382,7.9319092 102.03213,0.27271123" id="path5824" sodipodi:nodetypes="cc" />
    <path style="fill:none;stroke:#f6e3c9;stroke-width:0.465;stroke-linecap:butt;stroke-linejoin:miter;stroke-miterlimit:4;stroke-dasharray:none;stroke-opacity:1" d="m 113.07256,69.664054 c -9.33651,-14.687 -13.07001,-37.91851 0,-58.510957" id="path5124" sodipodi:nodetypes="cc" />
    <path style="fill:none;stroke:#f6e3c9;stroke-width:0.465;stroke-linecap:butt;stroke-linejoin:miter;stroke-miterlimit:4;stroke-dasharray:none;stroke-opacity:1" d="m 101.9066,80.673224 c -3.184208,-6.63726 2.05657,-14.64356 11.16596,-11.00917" id="path4956" sodipodi:nodetypes="cc" />
    <path style="fill:none;stroke:#f6e3c9;stroke-width:0.465;stroke-linecap:butt;stroke-linejoin:miter;stroke-miterlimit:4;stroke-dasharray:none;stroke-opacity:1" d="M 0.26253905,69.663404 C 5.447913,66.304564 15.649671,70.861064 11.374751,80.673224" id="path4788" sodipodi:nodetypes="cc" />
    <path style="fill:none;stroke:#f6e3c9;stroke-width:0.465;stroke-linecap:butt;stroke-linejoin:miter;stroke-miterlimit:4;stroke-dasharray:none;stroke-opacity:1" d="m 0.26253905,11.36842 c 6.58235595,9.910467 14.82805195,34.288454 0,58.294984" id="path4620" sodipodi:nodetypes="cc" />
    <path style="fill:none;stroke:#f6e3c9;stroke-width:0.465;stroke-linecap:butt;stroke-linejoin:miter;stroke-miterlimit:4;stroke-dasharray:none;stroke-opacity:1" d="m 11.403275,0.27271123 h 90.628855 c 0.0437,6.16070097 5.67398,10.76002777 11.04043,10.88038677 v 58.510956 c -8.84766,0.50772 -11.10504,7.60609 -11.16596,11.00917 H 11.374751 C 11.039068,74.268924 6.401283,69.852534 0.26253905,69.663404 V 11.36842 C 7.123824,10.606265 10.770038,6.4711612 11.403275,0.27271123 Z" id="path974" sodipodi:nodetypes="ccccccccc" />
    <path style="fill:none;stroke:#f6e3c9;stroke-width:0.465;stroke-linecap:butt;stroke-linejoin:miter;stroke-miterlimit:4;stroke-dasharray:none;stroke-opacity:1" d="M 11.403275,0.27271123 C 15.756354,8.6924072 6.687804,14.733234 0.26253905,11.36842" id="path4106" sodipodi:nodetypes="cc" />
  </g>
</svg>
