<?xml version="1.0" encoding="UTF-8" standalone="no"?>
<!-- Created with Inkscape (http://www.inkscape.org/) -->

<svg width="37.751453mm" height="46.067455mm" viewBox="0 0 37.751453 46.067455" version="1.1" id="svg14601" inkscape:version="1.1.2 (0a00cf5339, 2022-02-04, custom)" sodipodi:docname="occult_eye.svg" xmlns:inkscape="http://www.inkscape.org/namespaces/inkscape" xmlns:sodipodi="http://sodipodi.sourceforge.net/DTD/sodipodi-0.dtd" xmlns="http://www.w3.org/2000/svg" xmlns:svg="http://www.w3.org/2000/svg">
  <sodipodi:namedview id="namedview14603" pagecolor="#ffffff" bordercolor="#666666" borderopacity="1.0" inkscape:pageshadow="2" inkscape:pageopacity="0.0" inkscape:pagecheckerboard="false" inkscape:document-units="mm" showgrid="false" inkscape:zoom="2" inkscape:cx="344.42169" inkscape:cy="173.90177" inkscape:window-width="3832" inkscape:window-height="2152" inkscape:window-x="1920" inkscape:window-y="0" inkscape:window-maximized="1" inkscape:current-layer="layer1" />
  <defs id="defs14598" />
  <g inkscape:label="Layer 1" inkscape:groupmode="layer" id="layer1" transform="translate(-63.195206,-79.822014)">
    <path style="fill:none;stroke:#f6e3c9;stroke-width:0.265;stroke-linecap:butt;stroke-linejoin:miter;stroke-miterlimit:4;stroke-dasharray:none;stroke-opacity:1" d="m 63.795936,97.357791 c 5.695818,-4.901325 11.285246,-6.780247 16.410098,-6.987079 8.273221,-0.333895 15.335723,3.689801 19.680592,6.390222" id="path15090" sodipodi:nodetypes="csc" />
    <path style="fill:none;stroke:#f6e3c9;stroke-width:0.165;stroke-linecap:round;stroke-linejoin:miter;stroke-miterlimit:4;stroke-dasharray:none;stroke-opacity:1" d="M 65.251853,97.283319 C 76.134066,87.33689 89.668679,91.334724 98.294519,96.515051" id="path15528" sodipodi:nodetypes="cc" />
    <path style="fill:none;stroke:#f6e3c9;stroke-width:0.265;stroke-linecap:butt;stroke-linejoin:miter;stroke-miterlimit:4;stroke-dasharray:none;stroke-opacity:1" d="m 65.052365,96.347631 c -0.07613,-1.686555 1.112971,-3.783481 3.74957,-2.747277 -0.193957,-2.211219 2.195295,-3.952041 4.657545,-2.073866 0.64298,-2.837035 4.128431,-3.155557 5.623035,-1.269431 0.591369,-1.319687 3.424505,-2.558354 5.2392,0.120909 1.554545,-1.653568 4.493141,-1.092377 5.017697,1.072887 1.461601,-1.668835 4.430783,-0.956266 4.830744,1.900649 1.363072,-1.176217 4.395516,-0.855415 4.095857,2.430794" id="path16152" sodipodi:nodetypes="cccccccc" />
    <path style="fill:none;stroke:#f6e3c9;stroke-width:0.264583px;stroke-linecap:butt;stroke-linejoin:miter;stroke-opacity:1" d="M 79.082513,90.257055 78.390045,80.383141" id="path18942" />
    <path style="fill:none;stroke:#f6e3c9;stroke-width:0.264583px;stroke-linecap:butt;stroke-linejoin:miter;stroke-opacity:1" d="m 84.321715,90.377964 c 0.153796,-3.200283 0.434129,-6.321406 0.852308,-9.356294" id="path18944" sodipodi:nodetypes="cc" />
    <path style="fill:none;stroke:#f6e3c9;stroke-width:0.264583px;stroke-linecap:butt;stroke-linejoin:miter;stroke-opacity:1" d="m 89.339411,91.450852 c 0.686698,-2.885613 1.538438,-5.692291 2.327069,-8.529153" id="path19036" sodipodi:nodetypes="cc" />
    <path style="fill:none;stroke:#f6e3c9;stroke-width:0.264583px;stroke-linecap:butt;stroke-linejoin:miter;stroke-opacity:1" d="m 94.170155,93.3515 c 1.035827,-2.729031 2.196454,-5.352808 3.318266,-8.009321" id="path19128" sodipodi:nodetypes="cc" />
    <path style="fill:none;stroke:#f6e3c9;stroke-width:0.264583px;stroke-linecap:butt;stroke-linejoin:miter;stroke-opacity:1" d="M 73.459479,91.526486 C 72.618161,88.633612 71.587281,85.902154 70.589597,83.142427" id="path19220" sodipodi:nodetypes="cc" />
    <path style="fill:none;stroke:#f6e3c9;stroke-width:0.264583px;stroke-linecap:butt;stroke-linejoin:miter;stroke-opacity:1" d="m 68.801934,93.600353 c -1.305593,-2.342695 -2.71722,-4.17834 -3.916751,-7.028219" id="path19350" sodipodi:nodetypes="cc" />
    <path style="fill:none;stroke:#f6e3c9;stroke-width:0.165;stroke-linecap:round;stroke-linejoin:miter;stroke-miterlimit:4;stroke-dasharray:none;stroke-opacity:1" d="m 68.069041,86.066748 c 0.570317,1.337765 1.168274,2.659938 1.886638,3.914193" id="path19719" sodipodi:nodetypes="cc" />
    <path style="fill:none;stroke:#f6e3c9;stroke-width:0.165;stroke-linecap:round;stroke-linejoin:miter;stroke-miterlimit:4;stroke-dasharray:none;stroke-opacity:1" d="m 63.377346,89.050433 c 0.558931,1.219797 1.219127,2.365464 1.900688,3.495492" id="path19906" sodipodi:nodetypes="cc" />
    <path style="fill:none;stroke:#f6e3c9;stroke-width:0.165;stroke-linecap:round;stroke-linejoin:miter;stroke-miterlimit:4;stroke-dasharray:none;stroke-opacity:1" d="m 74.76641,83.108635 0.875048,4.513202" id="path25048" />
    <path style="fill:none;stroke:#f6e3c9;stroke-width:0.165;stroke-linecap:round;stroke-linejoin:miter;stroke-miterlimit:4;stroke-dasharray:none;stroke-opacity:1" d="m 81.520992,82.090248 0.148844,5.399985" id="path25083" />
    <path style="fill:none;stroke:#f6e3c9;stroke-width:0.165;stroke-linecap:round;stroke-linejoin:miter;stroke-miterlimit:4;stroke-dasharray:none;stroke-opacity:1" d="m 87.481811,87.97973 c 0.143656,-0.802498 0.115365,-0.800994 0.885404,-4.532389" id="path25118" sodipodi:nodetypes="cc" />
    <path style="fill:none;stroke:#f6e3c9;stroke-width:0.165;stroke-linecap:round;stroke-linejoin:miter;stroke-miterlimit:4;stroke-dasharray:none;stroke-opacity:1" d="m 92.687985,89.911131 c 0.42112,-1.332468 0.878513,-2.592658 1.347814,-3.829119" id="path25243" sodipodi:nodetypes="cc" />
    <path style="fill:none;stroke:#f6e3c9;stroke-width:0.165;stroke-linecap:round;stroke-linejoin:miter;stroke-miterlimit:4;stroke-dasharray:none;stroke-opacity:1" d="m 97.920756,92.181375 2.377794,-4.199224" id="path25468" />
    <circle style="fill:#f6e3c9;fill-opacity:1;stroke-width:0.165;stroke-linecap:round;stroke-miterlimit:4;stroke-dasharray:none" id="path25797" cx="64.946564" cy="86.600349" r="0.57630104" />
    <circle style="fill:#f6e3c9;fill-opacity:1;stroke-width:0.165;stroke-linecap:round;stroke-miterlimit:4;stroke-dasharray:none" id="path25797-5" cx="70.490242" cy="83.18383" r="0.57630104" />
    <circle style="fill:#f6e3c9;fill-opacity:1;stroke-width:0.165;stroke-linecap:round;stroke-miterlimit:4;stroke-dasharray:none" id="path25797-6" cx="78.360626" cy="80.398315" r="0.57630104" />
    <circle style="fill:#f6e3c9;fill-opacity:1;stroke-width:0.165;stroke-linecap:round;stroke-miterlimit:4;stroke-dasharray:none" id="path25797-2" cx="85.144821" cy="80.880524" r="0.57630104" />
    <circle style="fill:#f6e3c9;fill-opacity:1;stroke-width:0.165;stroke-linecap:round;stroke-miterlimit:4;stroke-dasharray:none" id="path25797-9" cx="91.666824" cy="83.010986" r="0.57630104" />
    <circle style="fill:#f6e3c9;fill-opacity:1;stroke-width:0.165;stroke-linecap:round;stroke-miterlimit:4;stroke-dasharray:none" id="path25797-1" cx="97.476837" cy="85.265999" r="0.57630104" />
    <circle style="fill:#f6e3c9;fill-opacity:1;stroke-width:0.165;stroke-linecap:round;stroke-miterlimit:4;stroke-dasharray:none" id="path25797-27" cx="63.788208" cy="97.363869" r="0.57630104" />
    <circle style="fill:#f6e3c9;fill-opacity:1;stroke-width:0.165;stroke-linecap:round;stroke-miterlimit:4;stroke-dasharray:none" id="path25797-0" cx="99.871445" cy="96.716164" r="0.57630104" />
    <circle style="fill:#f6e3c9;fill-opacity:1;stroke-width:0.165;stroke-linecap:round;stroke-miterlimit:4;stroke-dasharray:none" id="path25797-93" cx="63.771507" cy="112.3326" r="0.57630104" />
    <circle style="fill:#f6e3c9;fill-opacity:1;stroke-width:0.165;stroke-linecap:round;stroke-miterlimit:4;stroke-dasharray:none" id="path25797-60" cx="99.942169" cy="111.76382" r="0.57630104" />
    <circle style="fill:#f6e3c9;fill-opacity:1;stroke-width:0.165;stroke-linecap:round;stroke-miterlimit:4;stroke-dasharray:none" id="path25797-62" cx="96.126793" cy="117.60898" r="0.57630104" />
    <circle style="fill:#f6e3c9;fill-opacity:1;stroke-width:0.165;stroke-linecap:round;stroke-miterlimit:4;stroke-dasharray:none" id="path25797-61" cx="91.109016" cy="119.68159" r="0.57630104" />
    <circle style="fill:#f6e3c9;fill-opacity:1;stroke-width:0.165;stroke-linecap:round;stroke-miterlimit:4;stroke-dasharray:none" id="path25797-8" cx="84.96299" cy="121.09538" r="0.57630104" />
    <circle style="fill:#f6e3c9;fill-opacity:1;stroke-width:0.165;stroke-linecap:round;stroke-miterlimit:4;stroke-dasharray:none" id="path25797-7" cx="79.01944" cy="120.7957" r="0.57630104" />
    <circle style="fill:#f6e3c9;fill-opacity:1;stroke-width:0.165;stroke-linecap:round;stroke-miterlimit:4;stroke-dasharray:none" id="path25797-92" cx="74.078911" cy="119.71375" r="0.57630104" />
    <circle style="fill:#f6e3c9;fill-opacity:1;stroke-width:0.165;stroke-linecap:round;stroke-miterlimit:4;stroke-dasharray:none" id="path25797-02" cx="68.666801" cy="117.88406" r="0.57630104" />
    <path style="fill:none;stroke:#f6e3c9;stroke-width:0.265;stroke-linecap:butt;stroke-linejoin:miter;stroke-miterlimit:4;stroke-dasharray:none;stroke-opacity:1" d="m 63.755436,112.34108 c 15.513497,10.22683 27.548501,6.60391 36.217918,-0.55944" id="path26134" sodipodi:nodetypes="cc" />
    <path style="fill:none;stroke:#f6e3c9;stroke-width:0.165;stroke-linecap:round;stroke-linejoin:miter;stroke-miterlimit:4;stroke-dasharray:none;stroke-opacity:1" d="m 98.458344,111.80556 c -8.028507,7.82105 -21.320293,8.12723 -33.076083,0.76521" id="path26510" sodipodi:nodetypes="cc" />
    <path style="fill:none;stroke:#f6e3c9;stroke-width:0.264583px;stroke-linecap:round;stroke-linejoin:miter;stroke-opacity:1" d="m 65.407671,113.43267 c -0.149701,3.19288 2.466797,3.07304 4.132004,2.31159 0.464677,2.46006 3.02202,3.64914 4.880116,1.90291 0.935041,2.89397 3.619064,2.44812 4.912958,0.99376 1.27704,2.31766 4.34694,1.99392 5.275302,0.13545 0.90658,1.6065 4.693305,2.12123 5.643126,-1.20203 2.845744,2.13649 4.801067,-0.23122 4.591624,-2.09215 2.85485,1.13329 3.676165,-1.17421 3.743312,-2.47161" id="path26773" sodipodi:nodetypes="cccccccc" />
    <path style="fill:none;stroke:#f6e3c9;stroke-width:0.165;stroke-linecap:round;stroke-linejoin:miter;stroke-miterlimit:4;stroke-dasharray:none;stroke-opacity:1" d="m 98.904569,117.11526 c 0.528008,1.07172 1.179161,2.08299 1.959591,3.03079" id="path29012" sodipodi:nodetypes="cc" />
    <path style="fill:none;stroke:#f6e3c9;stroke-width:0.165;stroke-linecap:round;stroke-linejoin:miter;stroke-miterlimit:4;stroke-dasharray:none;stroke-opacity:1" d="m 94.097265,120.4053 c 0.50826,0.84215 0.929507,1.93311 1.342257,3.04835" id="path29123" sodipodi:nodetypes="cc" />
    <path style="fill:none;stroke:#f6e3c9;stroke-width:0.165;stroke-linecap:round;stroke-linejoin:miter;stroke-miterlimit:4;stroke-dasharray:none;stroke-opacity:1" d="m 88.887037,121.86967 c 0.24919,1.07169 0.437367,2.28365 0.632693,3.47918" id="path29234" sodipodi:nodetypes="cc" />
    <path style="fill:none;stroke:#f6e3c9;stroke-width:0.165;stroke-linecap:round;stroke-linejoin:miter;stroke-miterlimit:4;stroke-dasharray:none;stroke-opacity:1" d="m 82.31574,122.46522 -0.03645,3.34175" id="path29345" />
    <path style="fill:none;stroke:#f6e3c9;stroke-width:0.165;stroke-linecap:round;stroke-linejoin:miter;stroke-miterlimit:4;stroke-dasharray:none;stroke-opacity:1" d="m 76.464069,121.74151 -0.779873,3.01071" id="path29413" />
    <path style="fill:none;stroke:#f6e3c9;stroke-width:0.165;stroke-linecap:round;stroke-linejoin:miter;stroke-miterlimit:4;stroke-dasharray:none;stroke-opacity:1" d="m 71.659791,120.3066 c -0.526673,1.13194 -0.991688,2.28148 -1.389446,3.45023" id="path29448" sodipodi:nodetypes="cc" />
    <path style="fill:none;stroke:#f6e3c9;stroke-width:0.165;stroke-linecap:round;stroke-linejoin:miter;stroke-miterlimit:4;stroke-dasharray:none;stroke-opacity:1" d="m 66.226046,117.63646 c -0.516253,1.03453 -0.897858,2.0961 -1.280996,3.15737" id="path29559" sodipodi:nodetypes="cc" />
    <path style="fill:none;stroke:#f6e3c9;stroke-width:0.065;stroke-linecap:round;stroke-linejoin:miter;stroke-miterlimit:4;stroke-dasharray:none;stroke-opacity:1" d="m 71.620109,110.42225 c 1.39369,0.91611 2.678258,1.42456 3.978247,1.86878" id="path29670" sodipodi:nodetypes="cc" />
    <path style="fill:none;stroke:#f6e3c9;stroke-width:0.065;stroke-linecap:round;stroke-linejoin:miter;stroke-miterlimit:4;stroke-dasharray:none;stroke-opacity:1" d="m 72.67853,110.47964 c 4.282874,2.02377 10.253498,3.82127 14.916129,1.96149" id="path30085" sodipodi:nodetypes="cc" />
    <path style="fill:none;stroke:#f6e3c9;stroke-width:0.065;stroke-linecap:round;stroke-linejoin:miter;stroke-miterlimit:4;stroke-dasharray:none;stroke-opacity:1" d="m 83.384781,112.25694 c 2.929419,0.0177 5.614462,-0.37048 8.540614,-1.97251" id="path30272" sodipodi:nodetypes="cc" />
    <path style="fill:none;stroke:#f6e3c9;stroke-width:0.065;stroke-linecap:round;stroke-linejoin:miter;stroke-miterlimit:4;stroke-dasharray:none;stroke-opacity:1" d="m 78.630327,111.00051 c 6.987727,1.25095 11.604052,-0.23303 14.979723,-3.25323" id="path30549" sodipodi:nodetypes="cc" />
    <path style="fill:none;stroke:#f6e3c9;stroke-width:0.065;stroke-linecap:round;stroke-linejoin:miter;stroke-miterlimit:4;stroke-dasharray:none;stroke-opacity:1" d="m 92.059441,99.376671 c 0.380105,0.344121 0.774796,0.645829 1.1612,1.296009" id="path30712" sodipodi:nodetypes="cc" />
    <path style="fill:none;stroke:#f6e3c9;stroke-width:0.065;stroke-linecap:round;stroke-linejoin:miter;stroke-miterlimit:4;stroke-dasharray:none;stroke-opacity:1" d="m 92.250042,100.27329 c 1.21672,1.27921 2.40474,2.72545 3.185282,4.66124" id="path30837" sodipodi:nodetypes="cc" />
    <path style="fill:none;stroke:#f6e3c9;stroke-width:0.065;stroke-linecap:round;stroke-linejoin:miter;stroke-miterlimit:4;stroke-dasharray:none;stroke-opacity:1" d="m 93.199076,102.30511 c 0.710472,1.25729 1.397247,2.51751 1.874231,3.80367" id="path31076" sodipodi:nodetypes="cc" />
    <path style="fill:none;stroke:#f6e3c9;stroke-width:0.065;stroke-linecap:round;stroke-linejoin:miter;stroke-miterlimit:4;stroke-dasharray:none;stroke-opacity:1" d="m 91.886997,101.60697 c 0.322189,0.33479 0.638496,0.67231 0.893675,1.03831" id="path31201" sodipodi:nodetypes="cc" />
    <path style="fill:none;stroke:#f6e3c9;stroke-width:0.065;stroke-linecap:round;stroke-linejoin:miter;stroke-miterlimit:4;stroke-dasharray:none;stroke-opacity:1" d="m 93.165902,103.3131 c 0.383127,0.67242 0.7234,1.42246 1.094169,2.39425" id="path31364" sodipodi:nodetypes="cc" />
    <path style="fill:none;stroke:#f6e3c9;stroke-width:0.065;stroke-linecap:round;stroke-linejoin:miter;stroke-miterlimit:4;stroke-dasharray:none;stroke-opacity:1" d="m 91.446018,102.4662 c 0.811962,0.82961 1.449421,1.8632 1.963941,3.0405" id="path31793" sodipodi:nodetypes="cc" />
    <path style="fill:none;stroke:#f6e3c9;stroke-width:0.065;stroke-linecap:round;stroke-linejoin:miter;stroke-miterlimit:4;stroke-dasharray:none;stroke-opacity:1" d="m 66.318648,104.98837 c 0.820845,-0.82664 1.578512,-1.76904 2.344557,-2.69609" id="path31918" sodipodi:nodetypes="cc" />
    <path style="fill:none;stroke:#f6e3c9;stroke-width:0.065;stroke-linecap:round;stroke-linejoin:miter;stroke-miterlimit:4;stroke-dasharray:none;stroke-opacity:1" d="m 67.287605,104.53482 c 2.325939,-2.50088 3.727517,-4.10177 5.678355,-5.100052" id="path32081" sodipodi:nodetypes="cc" />
    <path style="fill:none;stroke:#f6e3c9;stroke-width:0.065;stroke-linecap:round;stroke-linejoin:miter;stroke-miterlimit:4;stroke-dasharray:none;stroke-opacity:1" d="m 67.969981,104.59883 c 1.185873,-1.38203 2.538851,-2.69905 4.088408,-3.76152" id="path32434" sodipodi:nodetypes="cc" />
    <path style="fill:none;stroke:#f6e3c9;stroke-width:0.065;stroke-linecap:round;stroke-linejoin:miter;stroke-miterlimit:4;stroke-dasharray:none;stroke-opacity:1" d="m 69.940259,103.77433 1.00481,-0.81847" id="path32749" sodipodi:nodetypes="cc" />
    <path style="fill:none;stroke:#f6e3c9;stroke-width:0.065;stroke-linecap:round;stroke-linejoin:miter;stroke-miterlimit:4;stroke-dasharray:none;stroke-opacity:1" d="m 70.348736,102.96606 c 2.490246,-2.35892 5.16153,-3.632459 8.223525,-4.106528" id="path32912" sodipodi:nodetypes="cc" />
    <path style="fill:none;stroke:#f6e3c9;stroke-width:0.065;stroke-linecap:round;stroke-linejoin:miter;stroke-miterlimit:4;stroke-dasharray:none;stroke-opacity:1" d="m 72.691225,100.43822 c 0.788526,-0.845834 1.907136,-1.139285 2.917856,-1.503557" id="path33075" sodipodi:nodetypes="cc" />
    <path style="fill:none;stroke:#f6e3c9;stroke-width:0.065;stroke-linecap:round;stroke-linejoin:miter;stroke-miterlimit:4;stroke-dasharray:none;stroke-opacity:1" d="m 70.63972,100.46397 c 3.418327,-3.730407 7.346895,-6.216605 12.905636,-4.72768" id="path33318" sodipodi:nodetypes="cc" />
    <path style="fill:none;stroke:#f6e3c9;stroke-width:0.165;stroke-linecap:round;stroke-linejoin:miter;stroke-miterlimit:4;stroke-dasharray:none;stroke-opacity:1" d="m 70.63972,100.46397 c 4.611862,-4.644738 11.008978,-5.239257 19.073042,-2.051962" id="path33462" sodipodi:nodetypes="cc" />
    <path style="fill:none;stroke:#f6e3c9;stroke-width:0.165;stroke-linecap:round;stroke-linejoin:miter;stroke-miterlimit:4;stroke-dasharray:none;stroke-opacity:1" d="m 66.523554,105.95099 c 6.065503,-1.5029 8.216533,-6.238703 14.993848,-6.421266 9.316428,0.01352 10.344558,7.726186 14.136634,7.056046" id="path33587" sodipodi:nodetypes="ccc" />
    <path style="fill:none;stroke:#f6e3c9;stroke-width:0.165;stroke-linecap:round;stroke-linejoin:round;stroke-miterlimit:4;stroke-dasharray:none;stroke-opacity:1" d="m 81.547519,99.536273 c -1.853913,0.05271 -5.060062,0.959987 -6.480704,1.917357 -2.894045,1.9503 -5.517521,2.8969 -4.738684,4.63438 0.872839,1.79505 2.201967,1.929 4.308673,2.67319 2.642607,0.93351 4.841514,1.39851 6.816283,1.62122 3.837524,0.35832 10.533037,-0.83081 11.215981,-3.87565 -0.283128,-2.60576 -6.484655,-7.224431 -11.121549,-6.970497 z" id="path34092" sodipodi:nodetypes="cscsccc" />
    <path style="fill:none;stroke:#f6e3c9;stroke-width:0.065;stroke-linecap:butt;stroke-linejoin:miter;stroke-miterlimit:4;stroke-dasharray:none;stroke-opacity:1" d="m 75.419166,109.02101 c -4.971345,-2.0366 -7.304926,-0.31431 -7.732424,-1.57129 -0.305779,-1.21574 2.193824,-2.23393 3.559175,-3.53892" id="path35911" sodipodi:nodetypes="ccc" />
    <path style="fill:none;stroke:#f6e3c9;stroke-width:0.165;stroke-linecap:butt;stroke-linejoin:round;stroke-miterlimit:4;stroke-dasharray:none;stroke-opacity:1" d="m 87.325654,101.49293 c 3.107171,4.17345 -0.508269,8.35932 -4.677307,8.63781 -3.068331,0.0976 -5.882741,-1.67533 -6.274043,-4.8243 -0.432971,-3.60082 0.96343,-5.21953 5.173215,-5.770167 1.851533,-0.198637 2.977613,0.368014 4.072305,0.967777 -1.672485,0.85104 -1.237357,2.95825 -0.614754,3.8034 2.241015,2.46168 2.956318,-1.54271 2.320584,-2.81452 z" id="path36328" sodipodi:nodetypes="ccccccc" />
    <ellipse style="fill:none;fill-opacity:1;stroke:#f6e3c9;stroke-width:0.141;stroke-linecap:round;stroke-linejoin:round;stroke-miterlimit:4;stroke-dasharray:none;stroke-opacity:1" id="path37045" cx="82.417694" cy="104.23445" rx="1.5467154" ry="1.5396587" />
  </g>
</svg>
